<svg width="22" height="19" viewBox="0 0 448 480" fill="none" xmlns="http://www.w3.org/2000/svg">
<path d="M384 0H64C28.6538 0 0 28.6538 0 64V416C0 451.346 28.6538 480 64 480H384C419.346 480 448 451.346 448 416V64C448 28.6538 419.346 0 384 0Z" fill="#E391FF"/>
<path d="M344 215.328C340.969 212.481 336.95 210.926 332.793 210.992C328.635 211.058 324.667 212.739 321.728 215.68L252.736 284.688C249.736 287.688 248.051 291.757 248.051 296C248.051 300.243 249.736 304.312 252.736 307.312L416.304 470.928C425.92 465.333 433.905 457.32 439.465 447.684C445.026 438.048 447.968 427.125 448 416V313.072L344 215.328Z" fill="#CF2EC6"/>
<path d="M272 208C298.51 208 320 186.51 320 160C320 133.49 298.51 112 272 112C245.49 112 224 133.49 224 160C224 186.51 245.49 208 272 208Z" fill="#560277"/>
<path d="M187.312 196.688C184.255 193.797 180.207 192.187 176 192.187C171.793 192.187 167.745 193.797 164.688 196.688L0 361.376V416C0 432.974 6.74284 449.252 18.7452 461.255C30.7475 473.257 47.0261 480 64 480H384C395.125 479.968 406.048 477.026 415.684 471.465C425.32 465.905 433.333 457.92 438.928 448.304L187.312 196.688Z" fill="#560277"/>
</svg>
